<svg xmlns="http://www.w3.org/2000/svg" xmlns:xlink="http://www.w3.org/1999/xlink" fill="none" version="1.1" width="120" height="120" viewBox="-60 -60 120 120"><defs></defs><g style="mix-blend-mode:pass-through"><g style="mix-blend-mode:pass-through;opacity: 1;" transform="matrix(1,0,0,1,-50,-50)"><path d="M73.146 5.68021C77.637 8.02576 81.7559 11.0459 85.355 14.645C88.9541 18.2441 91.9742 22.363 94.3198 26.854C95.8538 29.7912 94.2592 33.2756 91.1594 34.4469L89.7565 34.9771C86.6568 36.1484 83.2352 34.5509 81.5723 31.6847C79.9885 28.9547 78.053 26.4344 75.809 24.191C73.5656 21.947 71.0453 20.0115 68.3153 18.4277C65.4491 16.7648 63.8516 13.3432 65.0229 10.2435L65.5531 8.84058C66.7244 5.74083 70.2088 4.14616 73.146 5.68021Z" fill-rule="EVENODD" fill="#ffffff" fill-opacity="1" style="mix-blend-mode:normal"/></g><g style="mix-blend-mode:pass-through;opacity: 1;" transform="matrix(6.123233995736766e-17,1,-1,6.123233995736766e-17,50,-50)"><path d="M73.146 5.68021C77.637 8.02576 81.7559 11.0459 85.355 14.645C88.9541 18.2441 91.9742 22.363 94.3198 26.854C95.8538 29.7912 94.2592 33.2756 91.1594 34.4469L89.7565 34.9771C86.6568 36.1484 83.2352 34.5509 81.5723 31.6847C79.9885 28.9547 78.053 26.4344 75.809 24.191C73.5656 21.947 71.0453 20.0115 68.3153 18.4277C65.4491 16.7648 63.8516 13.3432 65.0229 10.2435L65.5531 8.84058C66.7244 5.74083 70.2088 4.14616 73.146 5.68021Z" fill-rule="EVENODD" fill="#ffffff" fill-opacity="1" style="mix-blend-mode:normal"/></g><g style="mix-blend-mode:pass-through;opacity: 1;" transform="matrix(-1,1.2246467991473532e-16,-1.2246467991473532e-16,-1,50.00000000000001,49.99999999999999)"><path d="M73.146 5.68021C77.637 8.02576 81.7559 11.0459 85.355 14.645C88.9541 18.2441 91.9742 22.363 94.3198 26.854C95.8538 29.7912 94.2592 33.2756 91.1594 34.4469L89.7565 34.9771C86.6568 36.1484 83.2352 34.5509 81.5723 31.6847C79.9885 28.9547 78.053 26.4344 75.809 24.191C73.5656 21.947 71.0453 20.0115 68.3153 18.4277C65.4491 16.7648 63.8516 13.3432 65.0229 10.2435L65.5531 8.84058C66.7244 5.74083 70.2088 4.14616 73.146 5.68021Z" fill-rule="EVENODD" fill="#ffffff" fill-opacity="1" style="mix-blend-mode:normal"/></g><g style="mix-blend-mode:pass-through;opacity: 1;" transform="matrix(-1.8369701987210297e-16,-1,1,-1.8369701987210297e-16,-49.99999999999999,50.00000000000001)"><path d="M73.146 5.68021C77.637 8.02576 81.7559 11.0459 85.355 14.645C88.9541 18.2441 91.9742 22.363 94.3198 26.854C95.8538 29.7912 94.2592 33.2756 91.1594 34.4469L89.7565 34.9771C86.6568 36.1484 83.2352 34.5509 81.5723 31.6847C79.9885 28.9547 78.053 26.4344 75.809 24.191C73.5656 21.947 71.0453 20.0115 68.3153 18.4277C65.4491 16.7648 63.8516 13.3432 65.0229 10.2435L65.5531 8.84058C66.7244 5.74083 70.2088 4.14616 73.146 5.68021Z" fill-rule="EVENODD" fill="#ffffff" fill-opacity="1" style="mix-blend-mode:normal"/></g><g style="mix-blend-mode:pass-through;opacity: 1;" transform="matrix(1,0,0,1,-8,-60)"><path d="M0 39L0 6Q0 5.85271 0.00722726 5.70559Q0.0144545 5.55848 0.0288916 5.4119Q0.0433288 5.26531 0.0649409 5.11962Q0.0865531 4.97392 0.115288 4.82946Q0.144023 4.685 0.179812 4.54212Q0.215601 4.39924 0.258358 4.25829Q0.301114 4.11734 0.350736 3.97866Q0.400357 3.83998 0.456723 3.7039Q0.513089 3.56782 0.576064 3.43467Q0.63904 3.30152 0.708472 3.17162Q0.777905 3.04172 0.853628 2.91538Q0.929351 2.78905 1.01118 2.66658Q1.09301 2.54411 1.18075 2.4258Q1.2685 2.3075 1.36194 2.19364Q1.45538 2.07978 1.55429 1.97065Q1.65321 1.86151 1.75736 1.75736Q1.86151 1.65321 1.97065 1.55429Q2.07978 1.45538 2.19364 1.36194Q2.3075 1.2685 2.4258 1.18075Q2.54411 1.09301 2.66658 1.01118Q2.78905 0.929351 2.91538 0.853628Q3.04172 0.777905 3.17162 0.708472Q3.30152 0.63904 3.43467 0.576064Q3.56782 0.513089 3.7039 0.456723Q3.83998 0.400357 3.97866 0.350736Q4.11734 0.301114 4.25829 0.258358Q4.39924 0.215601 4.54212 0.179812Q4.685 0.144023 4.82946 0.115288Q4.97392 0.0865531 5.11962 0.0649409Q5.26531 0.0433288 5.4119 0.0288916Q5.55848 0.0144545 5.70559 0.00722726Q5.85271 0 6 0L10 0Q10.1473 0 10.2944 0.00722726Q10.4415 0.0144545 10.5881 0.0288916Q10.7347 0.0433288 10.8804 0.0649409Q11.0261 0.0865531 11.1705 0.115288Q11.315 0.144023 11.4579 0.179812Q11.6008 0.215601 11.7417 0.258358Q11.8827 0.301114 12.0213 0.350736Q12.16 0.400357 12.2961 0.456723Q12.4322 0.513089 12.5653 0.576064Q12.6985 0.63904 12.8284 0.708472Q12.9583 0.777905 13.0846 0.853628Q13.211 0.929351 13.3334 1.01118Q13.4559 1.09301 13.5742 1.18075Q13.6925 1.2685 13.8064 1.36194Q13.9202 1.45538 14.0294 1.55429Q14.1385 1.65321 14.2426 1.75736Q14.3468 1.86151 14.4457 1.97065Q14.5446 2.07978 14.6381 2.19364Q14.7315 2.3075 14.8192 2.4258Q14.907 2.54411 14.9888 2.66658Q15.0706 2.78905 15.1464 2.91538Q15.2221 3.04172 15.2915 3.17162Q15.361 3.30152 15.4239 3.43467Q15.4869 3.56782 15.5433 3.7039Q15.5996 3.83998 15.6493 3.97866Q15.6989 4.11734 15.7416 4.25829Q15.7844 4.39924 15.8202 4.54212Q15.856 4.685 15.8847 4.82946Q15.9134 4.97392 15.9351 5.11962Q15.9567 5.26531 15.9711 5.4119Q15.9855 5.55848 15.9928 5.70559Q16 5.85271 16 6L16 39Q16 39.1473 15.9928 39.2944Q15.9855 39.4415 15.9711 39.5881Q15.9567 39.7347 15.9351 39.8804Q15.9134 40.0261 15.8847 40.1705Q15.856 40.315 15.8202 40.4579Q15.7844 40.6008 15.7416 40.7417Q15.6989 40.8827 15.6493 41.0213Q15.5996 41.16 15.5433 41.2961Q15.4869 41.4322 15.4239 41.5653Q15.361 41.6985 15.2915 41.8284Q15.2221 41.9583 15.1464 42.0846Q15.0706 42.2109 14.9888 42.3334Q14.907 42.4559 14.8192 42.5742Q14.7315 42.6925 14.6381 42.8064Q14.5446 42.9202 14.4457 43.0293Q14.3468 43.1385 14.2426 43.2426Q14.1385 43.3468 14.0294 43.4457Q13.9202 43.5446 13.8064 43.6381Q13.6925 43.7315 13.5742 43.8192Q13.4559 43.907 13.3334 43.9888Q13.211 44.0706 13.0846 44.1464Q12.9583 44.2221 12.8284 44.2915Q12.6985 44.361 12.5653 44.4239Q12.4322 44.4869 12.2961 44.5433Q12.16 44.5996 12.0213 44.6493Q11.8827 44.6989 11.7417 44.7416Q11.6008 44.7844 11.4579 44.8202Q11.315 44.856 11.1705 44.8847Q11.0261 44.9134 10.8804 44.9351Q10.7347 44.9567 10.5881 44.9711Q10.4415 44.9855 10.2944 44.9928Q10.1473 45 10 45L6 45Q5.85271 45 5.70559 44.9928Q5.55848 44.9855 5.4119 44.9711Q5.26531 44.9567 5.11962 44.9351Q4.97392 44.9134 4.82946 44.8847Q4.685 44.856 4.54212 44.8202Q4.39924 44.7844 4.25829 44.7416Q4.11734 44.6989 3.97866 44.6493Q3.83998 44.5996 3.7039 44.5433Q3.56782 44.4869 3.43467 44.4239Q3.30152 44.361 3.17162 44.2915Q3.04172 44.2221 2.91538 44.1464Q2.78905 44.0706 2.66658 43.9888Q2.54411 43.907 2.4258 43.8192Q2.3075 43.7315 2.19364 43.6381Q2.07978 43.5446 1.97065 43.4457Q1.86151 43.3468 1.75736 43.2426Q1.65321 43.1385 1.55429 43.0294Q1.45538 42.9202 1.36194 42.8064Q1.2685 42.6925 1.18075 42.5742Q1.09301 42.4559 1.01118 42.3334Q0.929351 42.2109 0.853628 42.0846Q0.777905 41.9583 0.708472 41.8284Q0.63904 41.6985 0.576064 41.5653Q0.513089 41.4322 0.456723 41.2961Q0.400357 41.16 0.350736 41.0213Q0.301114 40.8827 0.258358 40.7417Q0.215601 40.6008 0.179812 40.4579Q0.144023 40.315 0.115288 40.1705Q0.0865531 40.0261 0.0649409 39.8804Q0.0433288 39.7347 0.0288916 39.5881Q0.0144545 39.4415 0.00722726 39.2944Q0 39.1473 0 39Z" fill-rule="NONZERO" fill="#ffffff" fill-opacity="1" style="mix-blend-mode:normal"/></g><g style="mix-blend-mode:pass-through;opacity: 1;" transform="matrix(1,0,0,1,-8,15)"><path d="M0 39L0 6Q0 5.85271 0.00722726 5.70559Q0.0144545 5.55848 0.0288916 5.4119Q0.0433288 5.26531 0.0649409 5.11962Q0.0865531 4.97392 0.115288 4.82946Q0.144023 4.685 0.179812 4.54212Q0.215601 4.39924 0.258358 4.25829Q0.301114 4.11734 0.350736 3.97866Q0.400357 3.83998 0.456723 3.7039Q0.513089 3.56782 0.576064 3.43467Q0.63904 3.30152 0.708472 3.17162Q0.777905 3.04172 0.853628 2.91538Q0.929351 2.78905 1.01118 2.66658Q1.09301 2.54411 1.18075 2.4258Q1.2685 2.3075 1.36194 2.19364Q1.45538 2.07978 1.55429 1.97065Q1.65321 1.86151 1.75736 1.75736Q1.86151 1.65321 1.97065 1.55429Q2.07978 1.45538 2.19364 1.36194Q2.3075 1.2685 2.4258 1.18075Q2.54411 1.09301 2.66658 1.01118Q2.78905 0.929351 2.91538 0.853628Q3.04172 0.777905 3.17162 0.708472Q3.30152 0.63904 3.43467 0.576064Q3.56782 0.513089 3.7039 0.456723Q3.83998 0.400357 3.97866 0.350736Q4.11734 0.301114 4.25829 0.258358Q4.39924 0.215601 4.54212 0.179812Q4.685 0.144023 4.82946 0.115288Q4.97392 0.0865531 5.11962 0.0649409Q5.26531 0.0433288 5.4119 0.0288916Q5.55848 0.0144545 5.70559 0.00722726Q5.85271 0 6 0L10 0Q10.1473 0 10.2944 0.00722726Q10.4415 0.0144545 10.5881 0.0288916Q10.7347 0.0433288 10.8804 0.0649409Q11.0261 0.0865531 11.1705 0.115288Q11.315 0.144023 11.4579 0.179812Q11.6008 0.215601 11.7417 0.258358Q11.8827 0.301114 12.0213 0.350736Q12.16 0.400357 12.2961 0.456723Q12.4322 0.513089 12.5653 0.576064Q12.6985 0.63904 12.8284 0.708472Q12.9583 0.777905 13.0846 0.853628Q13.211 0.929351 13.3334 1.01118Q13.4559 1.09301 13.5742 1.18075Q13.6925 1.2685 13.8064 1.36194Q13.9202 1.45538 14.0294 1.55429Q14.1385 1.65321 14.2426 1.75736Q14.3468 1.86151 14.4457 1.97065Q14.5446 2.07978 14.6381 2.19364Q14.7315 2.3075 14.8192 2.4258Q14.907 2.54411 14.9888 2.66658Q15.0706 2.78905 15.1464 2.91538Q15.2221 3.04172 15.2915 3.17162Q15.361 3.30152 15.4239 3.43467Q15.4869 3.56782 15.5433 3.7039Q15.5996 3.83998 15.6493 3.97866Q15.6989 4.11734 15.7416 4.25829Q15.7844 4.39924 15.8202 4.54212Q15.856 4.685 15.8847 4.82946Q15.9134 4.97392 15.9351 5.11962Q15.9567 5.26531 15.9711 5.4119Q15.9855 5.55848 15.9928 5.70559Q16 5.85271 16 6L16 39Q16 39.1473 15.9928 39.2944Q15.9855 39.4415 15.9711 39.5881Q15.9567 39.7347 15.9351 39.8804Q15.9134 40.0261 15.8847 40.1705Q15.856 40.315 15.8202 40.4579Q15.7844 40.6008 15.7416 40.7417Q15.6989 40.8827 15.6493 41.0213Q15.5996 41.16 15.5433 41.2961Q15.4869 41.4322 15.4239 41.5653Q15.361 41.6985 15.2915 41.8284Q15.2221 41.9583 15.1464 42.0846Q15.0706 42.2109 14.9888 42.3334Q14.907 42.4559 14.8192 42.5742Q14.7315 42.6925 14.6381 42.8064Q14.5446 42.9202 14.4457 43.0293Q14.3468 43.1385 14.2426 43.2426Q14.1385 43.3468 14.0294 43.4457Q13.9202 43.5446 13.8064 43.6381Q13.6925 43.7315 13.5742 43.8192Q13.4559 43.907 13.3334 43.9888Q13.211 44.0706 13.0846 44.1464Q12.9583 44.2221 12.8284 44.2915Q12.6985 44.361 12.5653 44.4239Q12.4322 44.4869 12.2961 44.5433Q12.16 44.5996 12.0213 44.6493Q11.8827 44.6989 11.7417 44.7416Q11.6008 44.7844 11.4579 44.8202Q11.315 44.856 11.1705 44.8847Q11.0261 44.9134 10.8804 44.9351Q10.7347 44.9567 10.5881 44.9711Q10.4415 44.9855 10.2944 44.9928Q10.1473 45 10 45L6 45Q5.85271 45 5.70559 44.9928Q5.55848 44.9855 5.4119 44.9711Q5.26531 44.9567 5.11962 44.9351Q4.97392 44.9134 4.82946 44.8847Q4.685 44.856 4.54212 44.8202Q4.39924 44.7844 4.25829 44.7416Q4.11734 44.6989 3.97866 44.6493Q3.83998 44.5996 3.7039 44.5433Q3.56782 44.4869 3.43467 44.4239Q3.30152 44.361 3.17162 44.2915Q3.04172 44.2221 2.91538 44.1464Q2.78905 44.0706 2.66658 43.9888Q2.54411 43.907 2.4258 43.8192Q2.3075 43.7315 2.19364 43.6381Q2.07978 43.5446 1.97065 43.4457Q1.86151 43.3468 1.75736 43.2426Q1.65321 43.1385 1.55429 43.0294Q1.45538 42.9202 1.36194 42.8064Q1.2685 42.6925 1.18075 42.5742Q1.09301 42.4559 1.01118 42.3334Q0.929351 42.2109 0.853628 42.0846Q0.777905 41.9583 0.708472 41.8284Q0.63904 41.6985 0.576064 41.5653Q0.513089 41.4322 0.456723 41.2961Q0.400357 41.16 0.350736 41.0213Q0.301114 40.8827 0.258358 40.7417Q0.215601 40.6008 0.179812 40.4579Q0.144023 40.315 0.115288 40.1705Q0.0865531 40.0261 0.0649409 39.8804Q0.0433288 39.7347 0.0288916 39.5881Q0.0144545 39.4415 0.00722726 39.2944Q0 39.1473 0 39Z" fill-rule="NONZERO" fill="#ffffff" fill-opacity="1" style="mix-blend-mode:normal"/></g><g style="mix-blend-mode:pass-through;opacity: 1;" transform="matrix(1,0,0,1,-60,-8)"><path d="M0 10L0 6Q0 5.85271 0.00722726 5.70559Q0.0144545 5.55848 0.0288916 5.4119Q0.0433288 5.26531 0.0649409 5.11962Q0.0865531 4.97392 0.115288 4.82946Q0.144023 4.685 0.179812 4.54212Q0.215601 4.39924 0.258358 4.25829Q0.301114 4.11734 0.350736 3.97866Q0.400357 3.83998 0.456723 3.7039Q0.513089 3.56782 0.576064 3.43467Q0.63904 3.30152 0.708472 3.17162Q0.777905 3.04172 0.853628 2.91538Q0.929351 2.78905 1.01118 2.66658Q1.09301 2.54411 1.18075 2.4258Q1.2685 2.3075 1.36194 2.19364Q1.45538 2.07978 1.55429 1.97065Q1.65321 1.86151 1.75736 1.75736Q1.86151 1.65321 1.97065 1.55429Q2.07978 1.45538 2.19364 1.36194Q2.3075 1.2685 2.4258 1.18075Q2.54411 1.09301 2.66658 1.01118Q2.78905 0.929351 2.91538 0.853628Q3.04172 0.777905 3.17162 0.708472Q3.30152 0.63904 3.43467 0.576064Q3.56782 0.513089 3.7039 0.456723Q3.83998 0.400357 3.97866 0.350736Q4.11734 0.301114 4.25829 0.258358Q4.39924 0.215601 4.54212 0.179812Q4.685 0.144023 4.82946 0.115288Q4.97392 0.0865531 5.11962 0.0649409Q5.26531 0.0433288 5.4119 0.0288916Q5.55848 0.0144545 5.70559 0.00722726Q5.85271 0 6 0L39 0Q39.1473 0 39.2944 0.00722726Q39.4415 0.0144545 39.5881 0.0288916Q39.7347 0.0433288 39.8804 0.0649409Q40.0261 0.0865531 40.1705 0.115288Q40.315 0.144023 40.4579 0.179812Q40.6008 0.215601 40.7417 0.258358Q40.8827 0.301114 41.0213 0.350736Q41.16 0.400357 41.2961 0.456723Q41.4322 0.513089 41.5653 0.576064Q41.6985 0.63904 41.8284 0.708472Q41.9583 0.777905 42.0846 0.853628Q42.2109 0.929351 42.3334 1.01118Q42.4559 1.09301 42.5742 1.18075Q42.6925 1.2685 42.8064 1.36194Q42.9202 1.45538 43.0293 1.55429Q43.1385 1.65321 43.2426 1.75736Q43.3468 1.86151 43.4457 1.97065Q43.5446 2.07978 43.6381 2.19364Q43.7315 2.3075 43.8192 2.4258Q43.907 2.54411 43.9888 2.66658Q44.0706 2.78905 44.1464 2.91538Q44.2221 3.04172 44.2915 3.17162Q44.361 3.30152 44.4239 3.43467Q44.4869 3.56782 44.5433 3.7039Q44.5996 3.83998 44.6493 3.97866Q44.6989 4.11734 44.7416 4.25829Q44.7844 4.39924 44.8202 4.54212Q44.856 4.685 44.8847 4.82946Q44.9134 4.97392 44.9351 5.11962Q44.9567 5.26531 44.9711 5.4119Q44.9855 5.55848 44.9928 5.70559Q45 5.85271 45 6L45 10Q45 10.1473 44.9928 10.2944Q44.9855 10.4415 44.9711 10.5881Q44.9567 10.7347 44.9351 10.8804Q44.9134 11.0261 44.8847 11.1705Q44.856 11.315 44.8202 11.4579Q44.7844 11.6008 44.7416 11.7417Q44.6989 11.8827 44.6493 12.0213Q44.5996 12.16 44.5433 12.2961Q44.4869 12.4322 44.4239 12.5653Q44.361 12.6985 44.2915 12.8284Q44.2221 12.9583 44.1464 13.0846Q44.0706 13.211 43.9888 13.3334Q43.907 13.4559 43.8192 13.5742Q43.7315 13.6925 43.6381 13.8064Q43.5446 13.9202 43.4457 14.0294Q43.3468 14.1385 43.2426 14.2426Q43.1385 14.3468 43.0294 14.4457Q42.9202 14.5446 42.8064 14.6381Q42.6925 14.7315 42.5742 14.8192Q42.4559 14.907 42.3334 14.9888Q42.2109 15.0706 42.0846 15.1464Q41.9583 15.2221 41.8284 15.2915Q41.6985 15.361 41.5653 15.4239Q41.4322 15.4869 41.2961 15.5433Q41.16 15.5996 41.0213 15.6493Q40.8827 15.6989 40.7417 15.7416Q40.6008 15.7844 40.4579 15.8202Q40.315 15.856 40.1705 15.8847Q40.0261 15.9134 39.8804 15.9351Q39.7347 15.9567 39.5881 15.9711Q39.4415 15.9855 39.2944 15.9928Q39.1473 16 39 16L6 16Q5.85271 16 5.70559 15.9928Q5.55848 15.9855 5.4119 15.9711Q5.26531 15.9567 5.11962 15.9351Q4.97392 15.9134 4.82946 15.8847Q4.685 15.856 4.54212 15.8202Q4.39924 15.7844 4.25829 15.7416Q4.11734 15.6989 3.97866 15.6493Q3.83998 15.5996 3.7039 15.5433Q3.56782 15.4869 3.43467 15.4239Q3.30152 15.361 3.17162 15.2915Q3.04172 15.2221 2.91538 15.1464Q2.78905 15.0706 2.66658 14.9888Q2.54411 14.907 2.4258 14.8192Q2.3075 14.7315 2.19364 14.6381Q2.07978 14.5446 1.97065 14.4457Q1.86151 14.3468 1.75736 14.2426Q1.65321 14.1385 1.55429 14.0294Q1.45538 13.9202 1.36194 13.8064Q1.2685 13.6925 1.18075 13.5742Q1.09301 13.4559 1.01118 13.3334Q0.929351 13.211 0.853628 13.0846Q0.777905 12.9583 0.708472 12.8284Q0.63904 12.6985 0.576064 12.5653Q0.513089 12.4322 0.456723 12.2961Q0.400357 12.16 0.350736 12.0213Q0.301114 11.8827 0.258358 11.7417Q0.215601 11.6008 0.179812 11.4579Q0.144023 11.315 0.115288 11.1705Q0.0865531 11.0261 0.0649409 10.8804Q0.0433288 10.7347 0.0288916 10.5881Q0.0144545 10.4415 0.00722726 10.2944Q0 10.1473 0 10Z" fill-rule="NONZERO" fill="#ffffff" fill-opacity="1" style="mix-blend-mode:normal"/></g><g style="mix-blend-mode:pass-through;opacity: 1;" transform="matrix(1,0,0,1,15,-8)"><path d="M0 10L0 6Q0 5.85271 0.00722726 5.70559Q0.0144545 5.55848 0.0288916 5.4119Q0.0433288 5.26531 0.0649409 5.11962Q0.0865531 4.97392 0.115288 4.82946Q0.144023 4.685 0.179812 4.54212Q0.215601 4.39924 0.258358 4.25829Q0.301114 4.11734 0.350736 3.97866Q0.400357 3.83998 0.456723 3.7039Q0.513089 3.56782 0.576064 3.43467Q0.63904 3.30152 0.708472 3.17162Q0.777905 3.04172 0.853628 2.91538Q0.929351 2.78905 1.01118 2.66658Q1.09301 2.54411 1.18075 2.4258Q1.2685 2.3075 1.36194 2.19364Q1.45538 2.07978 1.55429 1.97065Q1.65321 1.86151 1.75736 1.75736Q1.86151 1.65321 1.97065 1.55429Q2.07978 1.45538 2.19364 1.36194Q2.3075 1.2685 2.4258 1.18075Q2.54411 1.09301 2.66658 1.01118Q2.78905 0.929351 2.91538 0.853628Q3.04172 0.777905 3.17162 0.708472Q3.30152 0.63904 3.43467 0.576064Q3.56782 0.513089 3.7039 0.456723Q3.83998 0.400357 3.97866 0.350736Q4.11734 0.301114 4.25829 0.258358Q4.39924 0.215601 4.54212 0.179812Q4.685 0.144023 4.82946 0.115288Q4.97392 0.0865531 5.11962 0.0649409Q5.26531 0.0433288 5.4119 0.0288916Q5.55848 0.0144545 5.70559 0.00722726Q5.85271 0 6 0L39 0Q39.1473 0 39.2944 0.00722726Q39.4415 0.0144545 39.5881 0.0288916Q39.7347 0.0433288 39.8804 0.0649409Q40.0261 0.0865531 40.1705 0.115288Q40.315 0.144023 40.4579 0.179812Q40.6008 0.215601 40.7417 0.258358Q40.8827 0.301114 41.0213 0.350736Q41.16 0.400357 41.2961 0.456723Q41.4322 0.513089 41.5653 0.576064Q41.6985 0.63904 41.8284 0.708472Q41.9583 0.777905 42.0846 0.853628Q42.2109 0.929351 42.3334 1.01118Q42.4559 1.09301 42.5742 1.18075Q42.6925 1.2685 42.8064 1.36194Q42.9202 1.45538 43.0293 1.55429Q43.1385 1.65321 43.2426 1.75736Q43.3468 1.86151 43.4457 1.97065Q43.5446 2.07978 43.6381 2.19364Q43.7315 2.3075 43.8192 2.4258Q43.907 2.54411 43.9888 2.66658Q44.0706 2.78905 44.1464 2.91538Q44.2221 3.04172 44.2915 3.17162Q44.361 3.30152 44.4239 3.43467Q44.4869 3.56782 44.5433 3.7039Q44.5996 3.83998 44.6493 3.97866Q44.6989 4.11734 44.7416 4.25829Q44.7844 4.39924 44.8202 4.54212Q44.856 4.685 44.8847 4.82946Q44.9134 4.97392 44.9351 5.11962Q44.9567 5.26531 44.9711 5.4119Q44.9855 5.55848 44.9928 5.70559Q45 5.85271 45 6L45 10Q45 10.1473 44.9928 10.2944Q44.9855 10.4415 44.9711 10.5881Q44.9567 10.7347 44.9351 10.8804Q44.9134 11.0261 44.8847 11.1705Q44.856 11.315 44.8202 11.4579Q44.7844 11.6008 44.7416 11.7417Q44.6989 11.8827 44.6493 12.0213Q44.5996 12.16 44.5433 12.2961Q44.4869 12.4322 44.4239 12.5653Q44.361 12.6985 44.2915 12.8284Q44.2221 12.9583 44.1464 13.0846Q44.0706 13.211 43.9888 13.3334Q43.907 13.4559 43.8192 13.5742Q43.7315 13.6925 43.6381 13.8064Q43.5446 13.9202 43.4457 14.0294Q43.3468 14.1385 43.2426 14.2426Q43.1385 14.3468 43.0294 14.4457Q42.9202 14.5446 42.8064 14.6381Q42.6925 14.7315 42.5742 14.8192Q42.4559 14.907 42.3334 14.9888Q42.2109 15.0706 42.0846 15.1464Q41.9583 15.2221 41.8284 15.2915Q41.6985 15.361 41.5653 15.4239Q41.4322 15.4869 41.2961 15.5433Q41.16 15.5996 41.0213 15.6493Q40.8827 15.6989 40.7417 15.7416Q40.6008 15.7844 40.4579 15.8202Q40.315 15.856 40.1705 15.8847Q40.0261 15.9134 39.8804 15.9351Q39.7347 15.9567 39.5881 15.9711Q39.4415 15.9855 39.2944 15.9928Q39.1473 16 39 16L6 16Q5.85271 16 5.70559 15.9928Q5.55848 15.9855 5.4119 15.9711Q5.26531 15.9567 5.11962 15.9351Q4.97392 15.9134 4.82946 15.8847Q4.685 15.856 4.54212 15.8202Q4.39924 15.7844 4.25829 15.7416Q4.11734 15.6989 3.97866 15.6493Q3.83998 15.5996 3.7039 15.5433Q3.56782 15.4869 3.43467 15.4239Q3.30152 15.361 3.17162 15.2915Q3.04172 15.2221 2.91538 15.1464Q2.78905 15.0706 2.66658 14.9888Q2.54411 14.907 2.4258 14.8192Q2.3075 14.7315 2.19364 14.6381Q2.07978 14.5446 1.97065 14.4457Q1.86151 14.3468 1.75736 14.2426Q1.65321 14.1385 1.55429 14.0294Q1.45538 13.9202 1.36194 13.8064Q1.2685 13.6925 1.18075 13.5742Q1.09301 13.4559 1.01118 13.3334Q0.929351 13.211 0.853628 13.0846Q0.777905 12.9583 0.708472 12.8284Q0.63904 12.6985 0.576064 12.5653Q0.513089 12.4322 0.456723 12.2961Q0.400357 12.16 0.350736 12.0213Q0.301114 11.8827 0.258358 11.7417Q0.215601 11.6008 0.179812 11.4579Q0.144023 11.315 0.115288 11.1705Q0.0865531 11.0261 0.0649409 10.8804Q0.0433288 10.7347 0.0288916 10.5881Q0.0144545 10.4415 0.00722726 10.2944Q0 10.1473 0 10Z" fill-rule="NONZERO" fill="#ffffff" fill-opacity="1" style="mix-blend-mode:normal"/></g></g></svg>
