<?xml version="1.0" standalone="no"?><!DOCTYPE svg PUBLIC "-//W3C//DTD SVG 1.1//EN" "http://www.w3.org/Graphics/SVG/1.1/DTD/svg11.dtd"><svg t="1761109949952" class="icon" viewBox="0 0 1024 1024" version="1.1" xmlns="http://www.w3.org/2000/svg" p-id="4022" xmlns:xlink="http://www.w3.org/1999/xlink" width="200" height="200"><path d="M781.649 527.88c-7.904 136.433-117.173 245.7-253.601 253.604v32.219c-0.008 8.769-7.123 15.872-15.892 15.869-8.763-0.008-15.868-7.107-15.871-15.869v-32.219c-136.434-7.904-245.695-117.171-253.6-253.604h-32.222c-8.768-0.008-15.873-7.118-15.869-15.887 0.004-8.765 7.108-15.866 15.869-15.874h32.222c7.905-136.432 117.166-245.696 253.601-253.601v-32.222c0.003-8.768 7.115-15.869 15.886-15.869 8.768 0.008 15.869 7.108 15.877 15.869v32.222c136.428 7.905 245.696 117.168 253.601 253.601h31.873c8.767-0.003 15.883 7.102 15.883 15.874 0.008 8.769-7.101 15.879-15.869 15.887h-31.903 0.015z m-31.819 0h-95.119c-8.768-0.008-15.876-7.118-15.869-15.887 0.007-8.765 7.102-15.866 15.869-15.874h95.119c-7.831-118.898-102.897-213.95-221.781-221.78v94.753c-0.008 8.769-7.123 15.873-15.892 15.866-8.763-0.003-15.868-7.105-15.871-15.866v-94.753c-118.903 7.831-213.951 102.896-221.781 221.78h94.75c8.768 0.008 15.876 7.12 15.869 15.892-0.004 8.765-7.108 15.861-15.869 15.869h-94.75c7.83 118.899 102.896 213.958 221.781 221.78v-94.749c0-8.768 7.108-15.88 15.878-15.88 8.769 0 15.885 7.112 15.885 15.88v94.749c118.899-7.822 213.95-102.894 221.781-221.78m-237.666 15.878c-17.538 0-31.754-14.214-31.754-31.754 0-17.544 14.216-31.765 31.754-31.765 17.544 0 31.761 14.22 31.761 31.765 0 17.54-14.217 31.754-31.761 31.754" p-id="4023" fill="#ffffff"></path></svg>