<svg xmlns="http://www.w3.org/2000/svg" fill="none" viewBox="-60 -60 120 120"><g style="mix-blend-mode:pass-through"><g style="mix-blend-mode:pass-through"><path fill="#fff" fill-rule="EVENODD" d="M73.1 5.7a50 50 0 0 1 21.2 21.2c1.6 2.9 0 6.4-3.1 7.5l-1.4.6a7 7 0 0 1-8.2-3.3 37 37 0 0 0-13.3-13.3 7 7 0 0 1-3.3-8.2l.6-1.4c1.1-3 4.6-4.7 7.5-3.1" style="mix-blend-mode:normal" transform="translate(-50 -50)"/></g><g style="mix-blend-mode:pass-through"><path fill="#fff" fill-rule="EVENODD" d="M73.1 5.7a50 50 0 0 1 21.2 21.2c1.6 2.9 0 6.4-3.1 7.5l-1.4.6a7 7 0 0 1-8.2-3.3 37 37 0 0 0-13.3-13.3 7 7 0 0 1-3.3-8.2l.6-1.4c1.1-3 4.6-4.7 7.5-3.1" style="mix-blend-mode:normal" transform="rotate(90 50 0)"/></g><g style="mix-blend-mode:pass-through"><path fill="#fff" fill-rule="EVENODD" d="M73.1 5.7a50 50 0 0 1 21.2 21.2c1.6 2.9 0 6.4-3.1 7.5l-1.4.6a7 7 0 0 1-8.2-3.3 37 37 0 0 0-13.3-13.3 7 7 0 0 1-3.3-8.2l.6-1.4c1.1-3 4.6-4.7 7.5-3.1" style="mix-blend-mode:normal" transform="matrix(-1 0 0 -1 50 50)"/></g><g style="mix-blend-mode:pass-through"><path fill="#fff" fill-rule="EVENODD" d="M73.1 5.7a50 50 0 0 1 21.2 21.2c1.6 2.9 0 6.4-3.1 7.5l-1.4.6a7 7 0 0 1-8.2-3.3 37 37 0 0 0-13.3-13.3 7 7 0 0 1-3.3-8.2l.6-1.4c1.1-3 4.6-4.7 7.5-3.1" style="mix-blend-mode:normal" transform="rotate(-90 0 50)"/></g><g style="mix-blend-mode:pass-through"><path fill="#fff" fill-rule="NONZERO" d="M0 39V5.1l.1-.3v-.3l.2-.2V4l.2-.3v-.3l.2-.2q0-.2.2-.3l.1-.2q0-.2.2-.3l.2-.2.2-.2.2-.2.2-.2.2-.2.2-.2.3-.2.2-.1.3-.2.2-.1.3-.1.3-.1.3-.1.2-.1h.3l.3-.1h.6L6 0h4.9l.3.1h.3l.2.2h.3l.3.2h.3l.2.2q.2 0 .3.2l.2.1q.2 0 .3.2l.2.2.2.2.2.2.2.2.2.2.2.2.2.3.1.2.2.3.1.2.1.3.1.3.1.3.1.2v.3l.1.3v.6l.1.3v33.9l-.1.3v.3l-.2.2v.3l-.2.3v.3l-.2.2q0 .2-.2.3l-.1.2q0 .2-.2.3l-.2.2-.2.2-.2.2-.2.2-.2.2-.2.2-.3.2-.2.1-.3.2-.2.1-.3.1-.3.1-.3.1-.2.1h-.3l-.3.1h-.6l-.3.1H5.1l-.3-.1h-.3l-.2-.2H4l-.3-.2h-.3l-.2-.2q-.2 0-.3-.2l-.2-.1q-.2 0-.3-.2l-.2-.2-.2-.2-.2-.2-.2-.2-.2-.2-.2-.2-.2-.3-.1-.2-.2-.3-.1-.2-.1-.3-.1-.3-.1-.3-.1-.2v-.3l-.1-.3v-.6z" style="mix-blend-mode:normal" transform="translate(-8 -60)"/></g><g style="mix-blend-mode:pass-through"><path fill="#fff" fill-rule="NONZERO" d="M0 39V5.1l.1-.3v-.3l.2-.2V4l.2-.3v-.3l.2-.2q0-.2.2-.3l.1-.2q0-.2.2-.3l.2-.2.2-.2.2-.2.2-.2.2-.2.2-.2.3-.2.2-.1.3-.2.2-.1.3-.1.3-.1.3-.1.2-.1h.3l.3-.1h.6L6 0h4.9l.3.1h.3l.2.2h.3l.3.2h.3l.2.2q.2 0 .3.2l.2.1q.2 0 .3.2l.2.2.2.2.2.2.2.2.2.2.2.2.2.3.1.2.2.3.1.2.1.3.1.3.1.3.1.2v.3l.1.3v.6l.1.3v33.9l-.1.3v.3l-.2.2v.3l-.2.3v.3l-.2.2q0 .2-.2.3l-.1.2q0 .2-.2.3l-.2.2-.2.2-.2.2-.2.2-.2.2-.2.2-.3.2-.2.1-.3.2-.2.1-.3.1-.3.1-.3.1-.2.1h-.3l-.3.1h-.6l-.3.1H5.1l-.3-.1h-.3l-.2-.2H4l-.3-.2h-.3l-.2-.2q-.2 0-.3-.2l-.2-.1q-.2 0-.3-.2l-.2-.2-.2-.2-.2-.2-.2-.2-.2-.2-.2-.2-.2-.3-.1-.2-.2-.3-.1-.2-.1-.3-.1-.3-.1-.3-.1-.2v-.3l-.1-.3v-.6z" style="mix-blend-mode:normal" transform="translate(-8 15)"/></g><g style="mix-blend-mode:pass-through"><path fill="#fff" fill-rule="NONZERO" d="M0 10V5.1l.1-.3v-.3l.2-.2V4l.2-.3v-.3l.2-.2q0-.2.2-.3l.1-.2q0-.2.2-.3l.2-.2.2-.2.2-.2.2-.2.2-.2.2-.2.3-.2.2-.1.3-.2.2-.1.3-.1.3-.1.3-.1.2-.1h.3l.3-.1h.6L6 0h33.9l.3.1h.3l.2.2h.3l.3.2h.3l.2.2q.2 0 .3.2l.2.1q.2 0 .3.2l.2.2.2.2.2.2.2.2.2.2.2.2.2.3.1.2.2.3.1.2.1.3.1.3.1.3.1.2v.3l.1.3v.6l.1.3v4.9l-.1.3v.3l-.2.2v.3l-.2.3v.3l-.2.2q0 .2-.2.3l-.1.2q0 .2-.2.3l-.2.2-.2.2-.2.2-.2.2-.2.2-.2.2-.3.2-.2.1-.3.2-.2.1-.3.1-.3.1-.3.1-.2.1h-.3l-.3.1h-.6l-.3.1H5.1l-.3-.1h-.3l-.2-.2H4l-.3-.2h-.3l-.2-.2q-.2 0-.3-.2l-.2-.1q-.2 0-.3-.2l-.2-.2-.2-.2-.2-.2-.2-.2-.2-.2-.2-.2-.2-.3-.1-.2-.2-.3-.1-.2-.1-.3-.1-.3-.1-.3-.1-.2v-.3l-.1-.3v-.6z" style="mix-blend-mode:normal" transform="translate(-60 -8)"/></g><g style="mix-blend-mode:pass-through"><path fill="#fff" fill-rule="NONZERO" d="M0 10V5.1l.1-.3v-.3l.2-.2V4l.2-.3v-.3l.2-.2q0-.2.2-.3l.1-.2q0-.2.2-.3l.2-.2.2-.2.2-.2.2-.2.2-.2.2-.2.3-.2.2-.1.3-.2.2-.1.3-.1.3-.1.3-.1.2-.1h.3l.3-.1h.6L6 0h33.9l.3.1h.3l.2.2h.3l.3.2h.3l.2.2q.2 0 .3.2l.2.1q.2 0 .3.2l.2.2.2.2.2.2.2.2.2.2.2.2.2.3.1.2.2.3.1.2.1.3.1.3.1.3.1.2v.3l.1.3v.6l.1.3v4.9l-.1.3v.3l-.2.2v.3l-.2.3v.3l-.2.2q0 .2-.2.3l-.1.2q0 .2-.2.3l-.2.2-.2.2-.2.2-.2.2-.2.2-.2.2-.3.2-.2.1-.3.2-.2.1-.3.1-.3.1-.3.1-.2.1h-.3l-.3.1h-.6l-.3.1H5.1l-.3-.1h-.3l-.2-.2H4l-.3-.2h-.3l-.2-.2q-.2 0-.3-.2l-.2-.1q-.2 0-.3-.2l-.2-.2-.2-.2-.2-.2-.2-.2-.2-.2-.2-.2-.2-.3-.1-.2-.2-.3-.1-.2-.1-.3-.1-.3-.1-.3-.1-.2v-.3l-.1-.3v-.6z" style="mix-blend-mode:normal" transform="translate(15 -8)"/></g></g></svg>